<?xml version="1.0" standalone="no"?><!DOCTYPE svg PUBLIC "-//W3C//DTD SVG 1.1//EN" "http://www.w3.org/Graphics/SVG/1.1/DTD/svg11.dtd"><svg t="1628973095803" class="icon" viewBox="0 0 1024 1024" version="1.1" xmlns="http://www.w3.org/2000/svg" p-id="7491" xmlns:xlink="http://www.w3.org/1999/xlink" width="200" height="200"><defs><style type="text/css"></style></defs><path d="M0 301.176471V120.470588a60.235294 60.235294 0 0 1 60.235294-60.235294h240.941177a60.235294 60.235294 0 0 1 60.235294 60.235294h662.588235v180.705883H0z" fill="#D1A859" p-id="7492"></path><path d="M963.764706 963.764706H60.235294a60.235294 60.235294 0 0 1-60.235294-60.235294V301.176471h60.235294V240.941176h903.529412v60.235295h60.235294v602.352941a60.235294 60.235294 0 0 1-60.235294 60.235294z" fill="#FFCC66" p-id="7493"></path><path d="M60.235294 180.705882h903.529412v60.235294H60.235294z" fill="#F8EDD6" p-id="7494"></path><path d="M0 240.941176h60.235294v60.235295H0zM963.764706 240.941176h60.235294v60.235295h-60.235294z" fill="#F3C363" p-id="7495"></path></svg>